HIERARCHY
ROOT Hips
{
    OFFSET 0.000000 0.000000 0.000000
    CHANNELS 6 Xposition Yposition Zposition Zrotation Xrotation Yrotation
    JOINT Spine
    {
        OFFSET -0.000000 8.349382 0.000000
        CHANNELS 3 Zrotation Xrotation Yrotation
        JOINT Spine1
        {
            OFFSET -0.000000 23.269058 0.000000
            CHANNELS 3 Zrotation Xrotation Yrotation
            JOINT Neck
            {
                OFFSET -0.000000 23.173496 2.106681
                CHANNELS 3 Zrotation Xrotation Yrotation
                JOINT Head
                {
                    OFFSET -0.000000 14.255042 -2.036435
                    CHANNELS 3 Zrotation Xrotation Yrotation
                    End Site
                    {
                        OFFSET -0.000000 25.455433 0.000000
                    }
                }
            }
            JOINT LeftShoulder
            {
                OFFSET 3.917082 21.531742 0.000256
                CHANNELS 3 Zrotation Xrotation Yrotation
                JOINT LeftArm
                {
                    OFFSET 10.728225 0.000000 0.000000
                    CHANNELS 3 Zrotation Xrotation Yrotation
                    JOINT LeftForeArm
                    {
                        OFFSET 30.046112 0.000000 0.000000
                        CHANNELS 3 Zrotation Xrotation Yrotation
                        JOINT LeftHand
                        {
                            OFFSET 29.023712 0.000000 0.000000
                            CHANNELS 3 Zrotation Xrotation Yrotation
                            End Site
                            {
                                OFFSET 15.273261 0.000000 0.000000
                            }
                        }
                    }
                }
            }
            JOINT RightShoulder
            {
                OFFSET -3.920664 21.531742 0.000256
                CHANNELS 3 Zrotation Xrotation Yrotation
                JOINT RightArm
                {
                    OFFSET -10.728225 0.000000 0.000000
                    CHANNELS 3 Zrotation Xrotation Yrotation
                    JOINT RightForeArm
                    {
                        OFFSET -30.046112 0.000000 0.000000
                        CHANNELS 3 Zrotation Xrotation Yrotation
                        JOINT RightHand
                        {
                            OFFSET -29.023712 0.000000 0.000000
                            CHANNELS 3 Zrotation Xrotation Yrotation
                            End Site
                            {
                                OFFSET -15.273261 0.000000 0.000000
                            }
                        }
                    }
                }
            }
        }
    }
    JOINT LeftUpLeg
    {
        OFFSET 10.182174 0.000000 0.000000
        CHANNELS 3 Zrotation Xrotation Yrotation
        JOINT LeftLeg
        {
            OFFSET -0.000000 -49.689274 0.000000
            CHANNELS 3 Zrotation Xrotation Yrotation
            JOINT LeftFoot
            {
                OFFSET -0.000000 -39.155319 0.000000
                CHANNELS 3 Zrotation Xrotation Yrotation
                JOINT LeftToeBase
                {
                    OFFSET -0.000000 -6.618412 15.273261
                    CHANNELS 3 Zrotation Xrotation Yrotation
                    End Site
                    {
                        OFFSET -0.000000 0.000000 4.072869
                    }
                }
            }
        }
    }
    JOINT RightUpLeg
    {
        OFFSET -10.182174 0.000000 0.000000
        CHANNELS 3 Zrotation Xrotation Yrotation
        JOINT RightLeg
        {
            OFFSET -0.000000 -49.689274 0.000000
            CHANNELS 3 Zrotation Xrotation Yrotation
            JOINT RightFoot
            {
                OFFSET -0.000000 -39.155319 0.000000
                CHANNELS 3 Zrotation Xrotation Yrotation
                JOINT RightToeBase
                {
                    OFFSET -0.000000 -6.618412 15.273261
                    CHANNELS 3 Zrotation Xrotation Yrotation
                    End Site
                    {
                        OFFSET -0.000000 0.000000 4.072869
                    }
                }
            }
        }
    }
}
MOTION
Frames:    14
Frame Time:    0.008333
28.383497    97.824432    16.089893    -4.019650    -0.005224    105.742912    -0.833527    5.968464    -2.675732    0.639246    -1.621364    -2.710160    -4.568414    15.422645    -2.741700    7.127952    -21.148088    -0.525084    15.134548    -6.510638    -14.213832    -12.448942    -15.369486    -0.643447    36.914047    -54.653839    -50.336884    9.420039    -39.403046    50.688274    -3.398202    9.510879    -19.225365    52.098873    52.844135    26.046391    -6.822910    -6.437805    20.841017    -25.942701    -5.882916    3.030188    6.097416    -3.866176    -7.732114    -5.875476    1.558024    -6.247787    -2.675167    -2.026307    23.302790    0.000000    0.000000    0.000000    -2.382268    -3.112578    -4.241180    5.515830    6.157651    -0.238637    -3.126248    -5.602865    -17.294586    0.000000    0.000000    0.000000    
28.378654    97.836426    16.082293    -4.028101    0.062804    105.621712    -0.782366    6.007874    -2.705254    0.505530    -1.749218    -2.738596    -4.696231    15.510662    -2.647816    7.131581    -21.121967    -0.430692    15.172607    -6.533132    -14.305088    -12.448942    -15.369486    -0.643447    31.929670    -60.745365    -47.357052    -1.541470    -53.245941    44.372776    -3.304846    9.533914    -19.141497    51.976109    52.950935    26.103144    -6.817796    -6.483470    20.868145    -26.072367    -5.918295    2.972812    6.024124    -3.805149    -7.706437    -5.852796    1.498581    -6.199569    -2.735311    -1.974123    23.347340    0.000000    0.000000    0.000000    -2.445842    -3.103217    -4.136469    5.504687    6.114068    -0.255752    -3.079331    -5.583486    -17.255444    0.000000    0.000000    0.000000    
28.371078    97.848755    16.070417    -4.056921    0.134331    105.517502    -0.737189    6.023025    -2.762934    0.388578    -1.854913    -2.795438    -4.922197    15.565366    -2.565889    7.231130    -21.079908    -0.316901    15.135582    -6.567917    -14.260431    -12.448942    -15.369486    -0.643447    22.500223    -64.681236    -50.328339    -7.662816    -60.939449    36.624405    -3.246930    9.546215    -19.088900    51.786186    53.120602    26.262327    -6.809571    -6.595968    20.923853    -26.201447    -6.006922    2.862226    5.936354    -3.775601    -7.726994    -5.832798    1.453304    -6.121245    -2.709172    -1.905514    23.391304    0.000000    0.000000    0.000000    -2.544354    -3.104084    -4.059044    5.542484    6.068303    -0.166705    -3.062186    -5.555610    -17.309731    0.000000    0.000000    0.000000    
28.370718    97.861023    16.060015    -4.069674    0.191124    105.438652    -0.694001    6.020212    -2.830498    0.293792    -1.891582    -2.862178    -5.157733    15.556151    -2.498107    7.367708    -21.005280    -0.205111    15.059956    -6.606194    -14.116459    -12.448942    -15.369486    -0.643447    10.783114    -64.274055    -60.364555    5.202069    -60.431873    41.935387    -3.222325    9.546425    -19.096043    51.566788    53.237419    26.512434    -6.880479    -6.480986    20.850174    -25.779524    -5.899357    2.981289    5.877588    -3.735164    -7.778845    -5.836043    1.404573    -6.059662    -2.810829    -1.869565    23.480997    0.000000    0.000000    0.000000    -2.593667    -3.126755    -4.018198    5.508782    6.094685    -0.261719    -3.000792    -5.568929    -17.178249    0.000000    0.000000    0.000000    
28.367823    97.871941    16.041227    -4.069641    0.241899    105.313194    -0.672895    6.003216    -2.848052    0.234772    -1.849630    -2.879560    -5.317546    15.619267    -2.504556    7.457886    -21.168980    -0.174719    14.936927    -6.621024    -13.874895    -12.448942    -15.369486    -0.643447    2.611909    -60.305008    -71.170044    27.911282    -51.256859    53.119045    -3.268845    9.498319    -19.141190    51.332577    53.546989    26.746096    -7.043622    -6.512894    20.865822    -25.329981    -5.895786    3.015711    5.813116    -3.682337    -7.792921    -5.812278    1.369756    -5.970187    -2.761034    -1.818872    23.520538    0.000000    0.000000    0.000000    -2.661196    -3.140082    -3.949074    5.527644    6.118773    -0.229648    -3.011445    -5.557889    -17.153957    0.000000    0.000000    0.000000    
28.374313    97.879814    16.013756    -4.032104    0.282078    105.174896    -0.654392    5.980598    -2.820734    0.168976    -1.734062    -2.852372    -5.409995    15.556043    -2.504462    7.566733    -21.159330    -0.136407    14.815761    -6.612649    -13.602125    -12.448942    -15.369486    -0.643447    -0.630191    -55.302513    -79.102173    48.515770    -34.336548    60.106213    -3.310930    9.458342    -19.224701    51.203594    53.686424    26.882250    -7.146841    -6.478971    20.944639    -25.001966    -5.842616    3.078363    5.772102    -3.582782    -7.807862    -5.800558    1.333220    -5.892360    -2.846977    -1.834668    23.593416    0.000000    0.000000    0.000000    -2.714829    -3.111372    -3.891782    5.553796    6.133639    -0.209913    -2.980677    -5.544494    -17.095217    0.000000    0.000000    0.000000    
28.374535    97.881721    15.993616    -4.003518    0.291952    105.029007    -0.667891    5.955666    -2.738588    0.148138    -1.616705    -2.771245    -5.374815    15.498969    -2.526343    7.593297    -21.162901    -0.147680    14.713440    -6.652189    -13.371408    -12.448942    -15.369486    -0.643447    2.708374    -51.648006    -79.802910    57.962246    -20.537899    59.122227    -3.381698    9.430680    -19.321081    51.240410    53.731148    26.846432    -7.217785    -6.476941    21.077751    -24.582756    -5.822628    3.149970    5.762981    -3.514067    -7.808892    -5.790821    1.314158    -5.818725    -2.779229    -1.848887    23.637697    0.000000    0.000000    0.000000    -2.737485    -3.114487    -3.876922    5.574795    6.169954    -0.154207    -2.940885    -5.547697    -17.030699    0.000000    0.000000    0.000000    
28.359436    97.874298    15.985844    -4.014197    0.270517    104.867828    -0.715134    5.917070    -2.612124    0.173725    -1.548720    -2.646782    -5.343392    15.520778    -2.554629    7.694322    -21.205395    -0.143129    14.593949    -6.714083    -13.222855    -12.448942    -15.369486    -0.643447    14.347672    -48.835064    -72.266991    47.213406    -20.256292    52.103016    -3.433340    9.454719    -19.417347    51.342388    53.642063    26.735914    -7.170129    -6.477901    21.204000    -24.494684    -5.849923    3.280139    5.785812    -3.517993    -7.720779    -5.792307    1.344749    -5.822716    -2.813812    -1.919165    23.703592    0.000000    0.000000    0.000000    -2.724189    -3.192529    -3.882755    5.570466    6.250004    -0.071590    -3.075143    -5.553994    -16.954775    0.000000    0.000000    0.000000    
28.357298    97.861397    15.976477    -3.980510    0.232355    104.721725    -0.734141    5.911731    -2.479795    0.188247    -1.501233    -2.515246    -5.267627    15.605494    -2.558695    7.747476    -21.308126    -0.128242    14.539076    -6.712521    -13.152616    -12.448942    -15.369486    -0.643447    26.655144    -46.927692    -64.199394    30.853558    -23.092186    42.586586    -3.481100    9.512581    -19.491713    51.496143    53.458454    26.587072    -7.111786    -6.416521    21.297976    -24.309303    -5.810544    3.386042    5.849501    -3.473802    -7.687023    -5.819407    1.362286    -5.815896    -2.746756    -2.005836    23.771219    0.000000    0.000000    0.000000    -2.677954    -3.213400    -3.922900    5.556710    6.304457    -0.022631    -2.933529    -5.583816    -16.841393    0.000000    0.000000    0.000000    
28.364109    97.834572    15.982246    -3.941113    0.146263    104.543655    -0.724944    5.867918    -2.314282    0.183411    -1.418398    -2.349213    -5.147725    15.720816    -2.545393    7.804696    -21.469145    -0.091686    14.646010    -6.546519    -13.285286    -12.448942    -15.369486    -0.643447    38.019444    -46.385509    -56.779018    13.572514    -26.141657    31.089300    -3.503583    9.641038    -19.486715    51.748573    53.141117    26.356401    -7.048784    -6.428673    21.445129    -24.122776    -5.813187    3.356492    5.978276    -3.425893    -7.602754    -5.856634    1.380666    -5.791023    -2.629102    -2.139950    23.790148    0.000000    0.000000    0.000000    -2.559009    -3.229376    -3.871784    5.514004    6.317029    -0.031780    -2.942245    -5.592499    -16.694300    0.000000    0.000000    0.000000    
28.362679    97.809509    15.972984    -3.895435    0.117734    104.416489    -0.744658    5.875171    -2.163961    0.145292    -1.376359    -2.200483    -4.997242    15.910901    -2.565879    7.810841    -21.743093    -0.102723    14.706123    -6.546332    -13.202087    -12.448942    -15.369486    -0.643447    45.620743    -47.175434    -53.477749    1.660265    -27.521902    22.889585    -3.449397    9.756170    -19.465401    51.950718    52.847748    26.082771    -6.998035    -6.410427    21.570635    -24.151085    -5.788597    3.314804    5.958820    -3.373569    -7.428626    -5.700642    1.418805    -5.764709    -2.661021    -2.254261    23.661757    0.000000    0.000000    0.000000    -2.517390    -3.218198    -3.935328    5.496711    6.340694    0.045270    -2.982943    -5.629627    -16.596678    0.000000    0.000000    0.000000    
28.361057    97.780785    15.974591    -3.872406    0.061581    104.308365    -0.725959    5.831784    -2.058770    0.118985    -1.280447    -2.094430    -4.921209    16.029516    -2.580555    7.791482    -21.979582    -0.114595    14.778420    -6.313580    -13.224261    -12.448942    -15.369486    -0.643447    50.416447    -49.040909    -53.208767    -2.521688    -28.151190    20.826086    -3.429650    9.820611    -19.410362    52.128700    52.620777    25.866373    -6.953689    -6.392419    21.651850    -24.180742    -5.776147    3.321125    6.039204    -3.361130    -7.343025    -5.746026    1.452728    -5.774452    -2.518026    -2.355343    23.702599    0.000000    0.000000    0.000000    -2.447327    -3.232864    -3.945447    5.480246    6.363869    0.091010    -3.060423    -5.665468    -16.529705    0.000000    0.000000    0.000000    
28.361025    97.755829    15.979211    -3.836708    0.009443    104.234390    -0.705477    5.822521    -1.983490    0.107897    -1.229512    -2.018249    -4.957779    16.017139    -2.580410    7.836800    -21.935293    -0.101747    14.910343    -5.858114    -13.477649    -12.448942    -15.369486    -0.643447    54.574886    -50.914291    -53.889084    -2.215813    -27.836563    21.669777    -3.358341    9.878345    -19.353563    52.182735    52.407349    25.714890    -6.836243    -6.400196    21.735270    -24.533512    -5.801607    3.273787    6.124135    -3.342727    -7.300725    -5.785079    1.496414    -5.836671    -2.434930    -2.474808    23.768698    0.000000    0.000000    0.000000    -2.376220    -3.222542    -3.937485    5.459465    6.369627    0.128093    -3.096622    -5.690193    -16.483541    0.000000    0.000000    0.000000    
28.357960    97.733040    15.983985    -3.839548    -0.041421    104.210419    -0.660885    5.758463    -1.963259    0.075117    -1.152866    -1.995748    -5.002855    16.083475    -2.599526    7.869670    -22.053703    -0.106058    14.871338    -5.353255    -13.292318    -12.448942    -15.369486    -0.643447    56.650112    -51.414131    -57.161797    3.090288    -24.065477    24.271479    -3.285596    9.888907    -19.298304    52.167507    52.335541    25.648428    -6.853958    -6.372729    21.723867    -24.758141    -5.773296    3.251673    6.252645    -3.377108    -7.415130    -5.959721    1.533702    -5.904779    -2.264094    -2.567567    23.957027    0.000000    0.000000    0.000000    -2.322077    -3.236882    -3.963891    5.451896    6.357902    0.168493    -3.148642    -5.711103    -16.471613    0.000000    0.000000    0.000000    
